<?xml version="1.0" encoding="UTF-8" standalone="no"?> <!-- Created with Vectornator for iOS (http://vectornator.io/) --><!DOCTYPE svg PUBLIC "-//W3C//DTD SVG 1.1//EN" "http://www.w3.org/Graphics/SVG/1.1/DTD/svg11.dtd">
<svg style="fill-rule:evenodd;clip-rule:evenodd;stroke-linecap:round;stroke-linejoin:round;" xmlns:vectornator="http://vectornator.io" xmlns:xlink="http://www.w3.org/1999/xlink" xmlns="http://www.w3.org/2000/svg" xml:space="preserve" version="1.1" viewBox="0 0 1024 1024">
<metadata>
<vectornator:setting key="DimensionsVisible" value="1"/>
<vectornator:setting key="SnapToGrid" value="0"/>
<vectornator:setting key="SnapToPoints" value="0"/>
<vectornator:setting key="GuidesVisible" value="1"/>
<vectornator:setting key="RulersVisible" value="1"/>
<vectornator:setting key="CMYKEnabledKey" value="0"/>
<vectornator:setting key="SnapToEdges" value="0"/>
<vectornator:setting key="DisplayWhiteBackground" value="0"/>
<vectornator:setting key="SnapToGuides" value="1"/>
<vectornator:setting key="GridSpacing" value="36"/>
<vectornator:setting key="Units" value="Pixels"/>
<vectornator:setting key="DynamicGuides" value="0"/>
<vectornator:setting key="New" value="1"/>
</metadata>
<defs/>
<g id="Layer 1" vectornator:layerName="Layer 1" visibility="hidden">
<path stroke="#ffffff" stroke-width="30" d="M-220.997-106.1L1335.6-106.1L1335.6+1137.07L-220.997+1137.07L-220.997-106.1Z" fill="#000000" stroke-linecap="round" opacity="1" stroke-linejoin="round"/>
</g>
<g id="Layer 2" vectornator:layerName="Layer 2">
<path stroke="#ffffff" stroke-width="50" d="M454.204+511.473L515.204+554.892L422.143+662.832L149.126+979.5L88.1264+936.082L454.204+511.473Z" fill="#bd2138" stroke-linecap="round" fill-opacity="0.00209116" opacity="1" stroke-linejoin="round"/>
<path stroke="#ffffff" stroke-width="50" d="M389.418+344.154C375.711+195.521+488.447+63.6102+641.219+49.522C688.519+45.1602+739.513+49.6981+780.327+66.4667C790.104+70.4835+846.913+118.078+854.066+185.361C859.986+241.047+876.12+274.706+907.504+310.049C931.472+337.041+928.786+382.848+928.243+385.008C900.766+494.277+812.258+576.572+690.855+587.768C538.082+601.856+403.124+492.786+389.418+344.154Z" fill="#bd2138" stroke-linecap="round" fill-opacity="0.00209116" opacity="1" stroke-linejoin="round"/>
<path stroke="#ffffff" stroke-width="50" d="M391.245+340.357C377.538+191.724+489.747+64.3778+642.52+50.2896C689.82+45.9278+726.644+55.5421+754.163+88.1406C759.778+94.7921+785.304+136.38+770.255+190.102C758.781+231.063+790.176+268.092+817.413+326.688C840.879+377.173+909.459+409.624+908.655+412.823C881.178+522.092+814.085+572.775+692.682+583.97C539.909+598.059+404.951+488.989+391.245+340.357Z" fill="#bd2138" stroke-linecap="round" fill-opacity="0.00209116" opacity="1" stroke-linejoin="round"/>
<path stroke="#ffffff" stroke-width="50" d="M140.429+930.252C139.231+927.856+142.972+924.559+144.388+922.828C148.938+917.267+153.431+912.847+158.742+907.979C168.141+899.363+176.39+889.627+184.976+880.261C196.97+867.176+210.181+855.855+221.603+842.148C227.716+834.813+234.48+827.728+239.917+819.875C244.676+813+248.55+805.505+253.281+798.591C260.401+788.185+268.844+778.454+277.039+768.894C279.524+765.995+282.675+764.049+285.453+761.469C292.653+754.784+300.419+747.557+306.737+740.186C332.861+709.707+360.698+680.481+386.426+649.607C390.665+644.52+396.013+640.302+400.285+635.253C408.934+625.032+416.685+613.88+424.539+603.08C428.212+598.029+433.327+593.982+437.408+589.221C439.116+587.229+440.086+584.785+441.862+582.787C447.132+576.858+453.291+571.693+459.186+566.453C461.904+564.037+467.993+561.213+469.58+558.038" fill="#bd2138" stroke-linecap="round" fill-opacity="0.00209116" opacity="1" stroke-linejoin="round"/>
<path stroke="#ffffff" stroke-width="50" d="M869.623+427.027C875.482+432.886+863.305+447.374+859.52+452.673C850.334+465.535+838.859+474.648+826.102+483.76C812.979+493.134+800.405+502.83+786.467+510.961C771.572+519.649+755.83+525.793+739.837+531.944C719.053+539.938+697.765+546.085+675.332+547.487C650.697+549.027+625.45+542.951+601.502+538.161C575.697+533+547.179+533.613+524.562+517.955C514.703+511.129+504.685+503.641+496.584+494.64C491.871+489.403+487.872+483.894+482.595+479.097C476.932+473.948+469.352+469.729+464.721+463.554C450.035+443.973+443.623+417.322+436.743+394.386C434.116+385.631+429.374+377.491+426.64+368.739C420.998+350.688+416.767+327.804+418.868+308.898C420.241+296.545+426.59+282.572+432.08+271.594C434.57+266.613+438.485+261.695+441.406+256.828C446.275+248.712+449.921+239.865+455.395+231.959C461.581+223.023+469.895+215.734+476.378+207.089C482.716+198.638+488.684+189.904+495.03+181.443C497.111+178.668+498.152+175.544+500.47+172.894C510.813+161.074+522.921+151.976+535.443+142.585C536.201+142.016+544.882+136.001+543.991+134.813C540.161+129.706+522.251+139.752+518.345+141.807C504.728+148.974+494.538+159.482+484.15+170.562C479.057+175.995+473.46+180.443+468.606+186.106C463.427+192.149+460.051+197.97+456.172+204.758C454.887+207.007+453.167+208.985+451.509+210.975C451.138+211.42+450.732+213.109+450.732+212.529C450.732+211.71+451.143+210.931+451.509+210.198C454.302+204.612+459.095+200.012+463.166+195.432C474.013+183.229+485.291+173.939+498.916+165.122C507.688+159.446+515.778+152.895+524.562+147.248C538.06+138.571+551.996+130.632+565.752+122.378C580.716+113.4+596.589+104.864+613.936+101.395C620.366+100.109+626.938+99.6635+633.365+98.2862C639.653+96.9389+646.52+94.4075+652.795+93.6232C662.615+92.3956+673.981+92.846+683.881+92.846C691.27+92.846+696.482+94.2487+703.31+96.7319C704.791+97.2703+708.839+98.8632+710.305+99.8405C710.914+100.247+711.859+102.128+711.859+101.395C711.859+98.1719+704.368+96.3216+702.533+95.9547C693.106+94.0692+683.272+94.3145+673.778+95.1775C645.358+97.7611+617.746+105.355+589.844+110.721C576.643+113.26+563.221+114.824+550.209+117.715C545.711+118.715+541.491+119.825+536.997+120.824C535.954+121.056+534.902+121.263+533.888+121.601C533.339+121.784+531.924+121.969+532.334+122.378C533.993+124.037+537.023+122.033+539.328+121.601C541.925+121.114+544.53+120.659+547.1+120.047C558.547+117.321+569.792+114.054+581.295+111.498C590.375+109.48+599.345+106.944+608.496+105.281C622.972+102.649+637.477+102.363+652.017+100.618C662.435+99.3676+673.293+96.8744+683.881+98.2862C693.362+99.5503+704.212+103.227+713.413+106.058C728.414+110.673+735.353+134.272+736.728+148.025C739.234+173.085+738.608+198.357+741.391+223.41C742.505+233.429+746.129+243.163+748.386+252.942C750.15+260.586+751.555+268.164+754.603+275.48C771.384+315.754+795.985+353.885+828.434+382.728C840.726+393.655+857.928+407.797+847.863+426.25C841.718+437.516+830.175+443.482+819.885+450.342C808.088+458.206+795.917+466.269+783.358+472.88C773.081+478.288+762.265+482.316+752.272+488.423C743.628+493.705+735.782+498.939+727.402+503.966C723.876+506.082+718.747+511.738+714.191+511.738C713.611+511.738+715.242+511.248+715.745+510.961C717.056+510.211+718.35+509.43+719.631+508.629C720.423+508.134+721.202+507.618+721.962+507.075C728.921+502.104+736.078+497.395+742.946+492.309C767.781+473.912+791.729+454.443+816.776+436.353C826+429.691+835.413+422.928+842.423+413.815C843.351+412.609+848.787+404.489+843.2+404.489C833.318+404.489+820.864+413.315+812.89+417.701C806.893+420.999+800.993+424.47+795.016+427.804C755.414+449.89+714.977+470.436+675.332+492.309C655.505+503.248+635.314+513.269+615.491+524.172C608.08+528.249+600.702+532.44+592.953+535.83C591.743+536.359+590.337+536.244+589.067+536.607C588.51+536.766+587.103+537.794+587.513+537.384C589.088+535.808+591.132+534.784+592.953+533.498C596.89+530.72+600.704+527.771+604.61+524.95C610.03+521.035+615.422+517.08+620.931+513.292C637.807+501.69+654.57+489.922+671.446+478.32C689.873+465.651+712.89+450.709+732.065+438.684C739.859+433.797+747.65+428.905+755.38+423.918C761.541+419.943+767.76+416.057+774.032+412.261C777.606+410.098+781.272+408.091+784.912+406.043C786.733+405.019+788.264+402.935+790.353+402.935C791.648+402.935+788.266+404.471+787.244+405.266C783.603+408.098+779.956+410.922+776.364+413.815C770.629+418.435+764.981+423.16+759.266+427.804C752.546+433.264+745.682+438.548+739.06+444.124C713.322+465.798+687.498+488.691+663.675+512.515C657.457+518.732+651.079+524.792+645.023+531.167C641.23+535.16+637.537+539.264+634.143+543.602C632.855+545.246+631.034+546.953+631.034+549.042C631.034+550.078+633.206+549.485+634.143+549.042C638.238+547.102+642.074+544.627+645.8+542.047C659.904+532.283+672.644+520.68+686.213+510.183C710.012+491.773+735.842+476.32+760.82+459.668C768.114+454.805+775.221+449.664+782.581+444.902C785.603+442.947+788.782+441.247+791.907+439.461C792.41+439.174+793.919+438.329+793.461+438.684C763.003+462.374+730.711+484.533+697.87+504.743C689.469+509.913+680.734+514.521+672.224+519.509C666.69+522.753+663.458+525.311+655.903+526.504C654.818+526.675+653.209+525.21+653.572+524.172C658.279+510.724+669.742+500.617+679.218+489.977C706.476+459.372+736.377+432.362+767.038+405.266C778.177+395.423+789.297+385.554+800.456+375.734C805.139+371.612+809.723+367.377+814.445+363.299C815.425+362.453+816.693+361.936+817.553+360.968C818.794+359.572+822.494+356.671+820.662+356.305C816.963+355.565+813.183+357.784+809.782+359.414C800.683+363.774+792.058+369.069+783.358+374.18C771.33+381.246+759.387+388.465+747.609+395.94C707.042+421.684+666.757+448.45+627.925+476.765C615.691+485.686+603.755+495.271+591.398+503.966C586.345+507.522+581.154+510.89+575.855+514.069C574.659+514.787+571.586+516.965+571.969+515.624C572.781+512.784+575.451+510.84+577.41+508.629C583.487+501.767+589.689+495.012+596.061+488.423C604.976+479.206+614.022+470.112+623.262+461.222C647.892+437.528+667.896+419.705+693.984+397.495C707.156+386.281+720.911+374.994+734.397+364.076C735.404+363.262+736.543+362.611+737.505+361.745C739.139+360.275+744.345+356.771+742.168+357.082C738.382+357.623+735.28+360.45+732.065+362.522C723.609+367.972+715.368+373.753+707.196+379.62C695.159+388.262+683.358+397.229+671.446+406.043C644.084+426.292+616.664+446.477+589.844+467.439C580.409+474.814+571.186+482.456+561.866+489.977C556.419+494.373+551.011+498.817+545.546+503.189C544.534+503.998+541.521+506.436+542.437+505.52C586.285+461.673+634.514+421.715+683.881+384.283C693.913+376.676+704.022+369.169+714.191+361.745C720.344+357.252+726.643+352.962+732.842+348.533C733.896+347.78+737.11+345.622+735.951+346.202C722.204+353.075+710.3+362.936+697.87+371.848C687.004+379.639+675.967+387.196+665.229+395.163C642.447+412.066+613.184+434.733+591.398+453.45C584.168+459.662+577.335+466.324+570.415+472.88C567.49+475.651+563.897+477.947+561.866+481.428C561.328+482.351+564.026+482.696+564.975+482.206C571.805+478.673+577.989+474.01+584.404+469.771C592.497+464.424+600.577+459.052+608.496+453.45C650.191+423.959+691.102+393.69+734.397+366.408C742.065+361.576+749.864+356.953+757.712+352.419C761.525+350.216+769.915+341.832+769.369+346.202C768.642+352.018+761.418+354.861+756.935+358.636C751.544+363.176+745.43+366.783+739.837+371.071C722.421+384.423+705.275+398.22+687.767+411.484C680.994+416.615+674.165+421.68+667.561+427.027C666.554+427.842+663.157+429.358+664.452+429.358C666.19+429.358+667.701+428.037+669.115+427.027C673.164+424.134+676.856+420.771+680.772+417.701C686.441+413.258+692.179+408.903+697.87+404.489C704.872+399.059+711.873+393.626+718.854+388.169C731.128+378.572+742.518+368.304+754.603+358.636C756.343+357.244+758.467+356.326+760.043+354.751C760.622+354.171+758.406+355.094+757.712+355.528C754.238+357.699+751.057+360.312+747.609+362.522C740.951+366.79+734.036+370.651+727.402+374.957C719.266+380.238+711.397+385.92+703.31+391.277C656.833+422.069+610.381+453.383+562.643+482.206C558.077+484.963+553.247+487.263+548.654+489.977C547.539+490.636+546.741+491.81+545.546+492.309C543.574+493.13+541.037+495.145+539.328+493.863C538.001+492.868+541.31+491.194+542.437+489.977C547.79+484.196+553.084+478.347+558.758+472.88C567.34+464.609+576.316+456.755+585.181+448.787C618.636+418.721+653.183+390.306+688.544+362.522C698.406+354.774+708.268+346.951+718.076+339.207C721.539+336.474+724.859+333.563+728.179+330.658C729.007+329.935+729.734+329.104+730.511+328.327C731.029+327.809+732.721+326.445+732.065+326.773C707.488+339.061+684.946+357.3+662.898+373.402C636.494+392.686+610.955+413.128+585.181+433.244C577.012+439.62+568.538+445.595+560.312+451.896C556.361+454.922+552.582+458.167+548.654+461.222C547.917+461.796+547.04+462.178+546.323+462.776C545.479+463.48+543.147+465.812+543.991+465.108C592.759+424.468+641.101+383.672+692.43+346.202C710.017+333.363+727.937+320.976+746.054+308.898C748.088+307.542+750.363+306.539+752.272+305.012C752.911+304.5+750.693+305.466+749.94+305.789C748.875+306.246+747.8+306.709+746.831+307.343C740.28+311.636+733.823+316.071+727.402+320.555C717.502+327.47+707.752+334.598+697.87+341.539C657.032+370.223+617.004+399.74+577.41+430.135C558.089+444.967+539.222+460.382+519.899+475.211C516.364+477.925+512.692+480.458+509.019+482.983C508.064+483.639+505.169+485.427+505.91+484.537C524.319+462.447+546.542+442+567.306+422.364C595.442+395.757+624.6+370.215+654.349+345.425C674.614+328.537+695.748+312.721+716.522+296.463C720.284+293.519+723.807+290.283+727.402+287.137C728.377+286.284+730.829+283.337+729.734+284.029C701.647+301.768+674.839+322.678+648.132+342.316C620.707+362.481+593.231+382.599+566.529+403.712C557.293+411.015+548.434+418.783+539.328+426.25C535.48+429.405+531.494+432.39+527.671+435.576C526.827+436.279+526.198+437.221+525.34+437.907C524.887+438.269+523.376+439.094+523.785+438.684C526.647+435.823+530.167+433.689+533.111+430.913C578.134+388.463+624.022+347.137+671.446+307.343C681.179+299.177+691.124+291.269+700.979+283.251C706.408+278.834+712.13+274.759+717.299+270.04C718.155+269.258+720.003+267.075+718.854+266.931C715.263+266.482+710.258+269.666+707.196+271.594C698.621+276.993+689.828+282.071+681.55+287.914C671.093+295.295+660.73+302.809+650.463+310.452C598.993+348.769+550.496+390.649+501.247+431.69C500.802+432.061+502.375+431.304+502.802+430.913C505.502+428.437+507.983+425.732+510.573+423.141C517.309+416.406+524.044+409.67+530.78+402.935C542.826+390.888+554.932+378.895+567.306+367.185C606.222+330.362+647.398+297.237+688.544+263.045C696.173+256.706+703.8+250.351+711.082+243.616C714.178+240.752+718.009+238.183+719.631+234.29C720.228+232.855+716.393+233.67+714.968+234.29C710.282+236.327+706.089+239.354+701.756+242.062C699.866+243.243+698.12+244.639+696.316+245.947C684.908+254.224+673.498+262.498+662.12+270.817C617.471+303.464+574.674+337.819+532.334+373.402C522.482+381.683+512.716+390.067+502.802+398.272C497.69+402.502+492.541+406.692+487.258+410.706C486.056+411.62+482.958+414.49+483.373+413.038C484.241+409.997+486.797+407.702+488.813+405.266C494.89+397.923+501.594+391.115+508.242+384.283C515.524+376.798+522.805+369.311+530.002+361.745C557.153+333.202+585.845+306.172+614.713+279.366C634.341+261.14+654.811+243.84+674.555+225.741C679.146+221.533+683.477+217.045+687.767+212.529C688.41+211.852+690.157+209.78+689.321+210.198C678.781+215.468+667.872+225.036+659.012+231.959C648.555+240.128+638.31+248.567+627.925+256.828C598.338+280.363+569.258+304.085+540.883+329.104C522.987+344.883+505.791+361.485+487.258+376.511C484.802+378.503+478.073+384.78+479.487+381.951C481.864+377.197+486.775+374.212+490.367+370.294C503.701+355.748+517.003+341.72+530.78+327.55C569.155+288.078+610.502+250.985+652.017+214.861C665.034+203.535+680.097+194.139+690.876+180.666C692.626+178.478+686.19+183.741+683.881+185.329C682.045+186.591+680.17+187.809+678.441+189.214C671.877+194.548+665.525+200.139+659.012+205.535C645.117+217.048+630.919+228.192+617.045+239.73C587.664+264.165+558.63+289.025+530.002+314.338C519.559+323.572+509.44+333.172+498.916+342.316C493.632+346.907+488.04+351.13+482.595+355.528C481.305+356.57+478.71+360.295+478.71+358.636C478.71+356.805+481.373+356.114+482.595+354.751C488.11+348.599+493.37+342.222+498.916+336.099C508.139+325.915+517.956+316.282+527.671+306.566C564.491+269.746+601.773+233.609+639.583+197.763C653.015+185.029+666.653+172.511+679.995+159.682C681.58+158.159+685.191+157.152+684.658+155.019C684.201+153.19+680.803+155.551+679.218+156.574C672.688+160.787+666.783+165.9+660.566+170.562C642.489+184.12+625.267+197.469+607.719+211.752C590.895+225.446+574.39+239.531+557.98+253.719C527.413+280.147+499.415+308.399+470.938+336.876C470.278+337.536+472.624+335.996+473.269+335.321C478.341+330.02+483.078+324.409+488.036+319.001C496.832+309.405+505.602+299.785+514.459+290.246C549.874+252.107+586.742+215.414+624.039+179.111C631.92+171.441+640.272+164.265+648.132+156.574C652.454+152.343+656.63+147.953+660.566+143.362C661.32+142.482+663.244+139.972+662.12+140.253C648.593+143.635+638.694+155.487+627.925+164.345C619.549+171.236+611.372+178.366+603.056+185.329C558.178+222.901+517.705+265.289+477.932+308.121C470.569+316.051+462.665+323.556+456.172+332.213C455.732+332.799+457.247+331.213+457.726+330.658C462.171+325.512+466.622+320.37+470.938+315.115C485.528+297.353+500.015+279.492+515.236+262.268C538.703+235.713+561.737+208.79+585.181+182.22C591.246+175.347+597.897+168.998+603.833+162.014C606.72+158.618+614.458+154.557+611.605+151.133C608.785+147.75+603.509+154.76+599.947+157.351C592.061+163.086+584.748+169.581+577.41+176.003C549.862+200.106+523.993+225.567+498.916+252.165C491.726+259.791+485.42+268.205+478.71+276.257C477.181+278.092+472.233+283.251+474.047+281.697C493.578+264.956+509.724+243.124+526.894+224.187C536.621+213.458+546.578+202.941+556.426+192.323C568.973+178.795+582.057+165.546+594.507+151.911C598.108+147.967+601.919+144.089+604.61+139.476C604.902+138.976+603.561+138.415+603.056+138.699C599.171+140.884+595.614+143.634+592.176+146.47C585.239+152.193+578.608+158.279+571.969+164.345C552.63+182.018+537.549+196.644+519.122+215.638C511.465+223.531+504.074+231.678+496.584+239.73C493.712+242.818+490.913+245.973+488.036+249.056C487.286+249.86+486.481+252.165+485.704+251.388C484.885+250.568+486.58+249.218+487.258+248.279C489.959+244.54+493.009+241.065+495.807+237.399C512.704+215.258+530.04+193.522+547.877+172.117C552.698+166.332+557.875+160.847+562.643+155.019C564.875+152.292+566.855+149.367+568.861+146.47C569.19+145.994+570.2+144.776+569.638+144.916C567.267+145.509+565.149+147.074+563.421+148.802C558.885+153.337+554.518+158.04+550.209+162.791C544.413+169.181+538.446+175.44+533.111+182.22C505.432+217.395+481.497+258.303+470.161+301.903C466.614+315.546+465.498+329.885+465.498+343.87C465.498+346.72+465.498+349.569+465.498+352.419C465.498+355.787+465.916+359.18+465.498+362.522C465.396+363.335+465.529+364.719+464.721+364.854C458.636+365.868+454.247+355.194+453.063+351.642C448.388+337.615+447.369+321.223+446.846+306.566C446.735+303.46+447.018+300.344+446.846+297.24C446.758+295.667+446.378+291.032+446.069+292.577C444.646+299.69+445.896+307.086+446.069+314.338C446.402+328.333+447.114+342.316+447.623+356.305C448.063+368.409+447.793+376.821+449.955+388.169C450.108+388.973+453.534+395.123+449.955+392.054C442.307+385.499+438.537+376.395+435.188+367.185C421.903+330.651+453.408+303.293+477.932+280.92C485.53+273.989+493.242+267.17+501.247+260.714C509.313+254.209+517.781+248.217+526.117+242.062C534.62+235.782+543.127+229.506+551.763+223.41C560.745+217.07+569.925+211.016+578.964+204.758C586.764+199.358+594.429+193.764+602.279+188.437C630.896+169.018+660.144+151.929+690.098+134.813C693.787+132.705+697.197+130.046+700.202+127.041C701.756+125.487+702.666+122.378+704.865+122.378C705.799+122.378+706.749+123.113+707.196+123.933C711.795+132.364+712.169+146.693+712.636+155.796C713.536+173.35+714.203+191.061+714.968+208.644C715.25+215.142+713.399+224.128+714.968+230.404C715.108+230.966+715.943+231.181+716.522+231.181C719.265+231.181+719.541+225.685+719.631+224.964C720.654+216.778+719.631+207.54+719.631+199.318C719.631+183.87+721.539+161.937+710.305+149.579C706.192+145.055+699.238+141.618+693.984+138.699C679.842+130.842+664.735+125.171+648.909+122.378C640.258+120.852+631.199+117.932+622.485+121.601C610.15+126.795+600.93+141.185+592.176+150.356C589.393+153.271+586.271+155.864+583.627+158.905C554.879+191.965+543.661+229.964+526.117+269.262C512.776+299.146+499.135+326.257+496.584+359.414C494.105+391.641+501.228+421.841+505.91+453.45C507.103+461.499+512.465+481.716+500.47+485.314C489.723+488.538+485.259+474.121+482.595+466.662C477.788+453.201+475.61+439.05+481.041+425.473C481.282+424.869+490.212+411.276+492.699+414.592C494.446+416.923+488.292+422.885+488.036+423.141C485.06+426.117+478.945+431.458+474.047+429.358C463.496+424.837+451.988+406.903+447.623+396.717C444.935+390.445+444.113+382.327+439.074+377.288C433.15+371.364+415.289+378.192+414.205+369.517C413.432+363.333+416.389+355.297+419.645+350.088C420.27+349.087+423.638+346.309+425.085+347.756C425.577+348.248+419.523+354.436+418.868+355.528C417.863+357.203+416.619+362.696+414.205+363.299C411.792+363.903+412.301+359.414+411.096+359.414C409.131+359.414+409.218+363.624+408.765+364.076C408.215+364.626+408.417+362.44+408.765+361.745C416.854+345.566+438.9+357.329+451.509+355.528C456.506+354.814+461.881+350.73+466.275+348.533" fill="#bd2138" stroke-linecap="round" fill-opacity="0.00209116" opacity="1" stroke-linejoin="round"/>
</g>
</svg>
